<svg viewBox="0 0 24 24" fill="none" xmlns="http://www.w3.org/2000/svg">
  <path d="M19 7H15C16.66 7 18 5.66 18 4C18 2.34 16.66 1 15 1C13.34 1 12 2.34 12 4C12 2.34 10.66 1 9 1C7.34 1 6 2.34 6 4C6 5.66 7.34 7 9 7H5C3.34 7 2 8.34 2 10V20C2 21.66 3.34 23 5 23H19C20.66 23 22 21.66 22 20V10C22 8.34 20.66 7 19 7ZM19 9C19.55 9 20 9.45 20 10V14H13V9H19ZM14 4C14 3.45 14.45 3 15 3C15.55 3 16 3.45 16 4C16 4.55 15.55 5 15 5H14V4ZM8 4C8 3.45 8.45 3 9 3C9.55 3 10 3.45 10 4V5H9C8.45 5 8 4.55 8 4ZM5 9H11V14H4V10C4 9.45 4.45 9 5 9ZM4 20V16H11V21H5C4.45 21 4 20.55 4 20ZM19 21H13V16H20V20C20 20.55 19.55 21 19 21Z" fill="currentColor" />
</svg>