<svg viewBox="0 0 24 24" fill="none" xmlns="http://www.w3.org/2000/svg">
  <path d="M18 23H5.99999C4.23999 23 2.72999 21.85 2.19999 20.26C1.99999 19.64 2.48999 19 3.14999 19C3.56999 19 3.96999 19.24 4.09999 19.63C4.36999 20.43 5.11999 21 5.99999 21H18C18.88 21 19.63 20.43 19.9 19.63C20.03 19.24 20.44 19 20.85 19C21.51 19 22 19.64 21.8 20.26C21.27 21.85 19.76 23 18 23Z" fill="currentColor" />
  <path d="M16 11C15.61 10.61 14.98 10.61 14.59 11L13 12.59V2C13 1.45 12.55 1 12 1C11.45 1 11 1.45 11 2V12.59L9.41002 11C9.02002 10.61 8.39002 10.61 8.00002 11C7.61002 11.39 7.61002 12.02 8.00002 12.41L11.29 15.7C11.49 15.9 11.74 16 12 16C12.26 16 12.51 15.9 12.71 15.71L16 12.41C16.39 12.02 16.39 11.39 16 11Z" fill="currentColor" />
</svg>