<svg fill="currentColor" viewBox="0 0 24 24" xmlns="http://www.w3.org/2000/svg">
  <g clipPath="url(#clip0_1345_925)">
    <path d="M23.9999 12.07C23.9999 5.27001 18.4099 -0.219989 11.5999 1.09076e-05C5.5599 0.200011 0.469895 5.11001 0.029895 11.18C-0.430105 17.6 4.10989 23.05 10.1199 24V15.56H7.0799V12.07H10.1299V9.41001C10.1299 6.38001 11.9199 4.71001 14.6599 4.71001C15.9699 4.71001 17.3499 4.95001 17.3499 4.95001V7.92001H15.8399C14.3499 7.92001 13.8799 8.85001 13.8799 9.81001V12.07H17.2099L16.6799 15.56H13.8799V24C19.6099 23.09 23.9999 18.1 23.9999 12.07Z" fill="currentColor" />
  </g>
  <defs>
    <clipPath id="clip0_1345_925">
      <rect width="24" height="24" fill="white" />
    </clipPath>
  </defs>
</svg>