<svg viewBox="0 0 100 100" fill="none" xmlns="http://www.w3.org/2000/svg">
	<g clip-path="url(#a)">
		<path d="M50 100c27.614 0 50-22.386 50-50S77.614 0 50 0 0 22.386 0 50s22.386 50 50 50Z" fill="#fff" />
		<path d="M60 99V60.3c0-.2.1-.3.3-.3H99c.7-3.2 1-6.6 1-10 0-3.4-.3-7-1-10H60.7c-.7 0-.7 0-.7-.8V1c-2.8-.6-5.7-1-8.6-1h-2.7c-3 0-5.9.4-8.7 1v38.7c0 .2-.1.3-.3.3H1c-.7 3.2-1 6.6-1 10 0 3.4.3 7 1 10h38.1c.8 0 .8 0 .8.8V99c2.8.6 5.7 1 8.7 1h2.7c3 0 5.9-.4 8.7-1Z" fill="#FF1300" />
		<path d="M33.3 29.8V2.9c-9.1 3.2-16.9 8.9-22.7 16.4 7.3 3.7 14.7 7.3 22 11 .7.3.7.3.7-.5Zm33.9.4 22.2-11.1C83.5 11.7 75.6 6 66.6 2.8v27c0 .8 0 .8.6.4ZM32.7 69.7c-7.4 3.7-14.7 7.4-22.1 11 5.8 7.4 13.7 13.2 22.7 16.4v-27c0-.7 0-.7-.6-.4Zm33.9.5v27c9.1-3.2 17-8.9 22.8-16.4-7.4-3.7-14.8-7.4-22.1-11.1-.7-.3-.7-.3-.7.5Z" fill="#3C3B6E" />
		<path d="M68.9 33c-.1.1-.3.1-.4.3.2.1.4 0 .6 0h13.5c.5 0 1-.1 1.4-.3l10.8-5.4c-1-2-2.2-4-3.4-5.8-.5.3-1 .5-1.5.8-7.1 3.5-14 6.9-21 10.4ZM31 67c.1-.1.3-.1.4-.3-.2-.1-.4 0-.6 0H17.3c-.5 0-1 .1-1.4.3-3.6 1.8-7.1 3.6-10.7 5.4 1 2 2.2 4 3.4 5.8.5-.2.9-.5 1.4-.7 7-3.6 14-7 21-10.5ZM16.6 33.3c-.2-.1-.3-.2-.5-.3L5.3 27.6c-.9 1.9-1.8 3.8-2.4 5.8h13.3c.1 0 .2 0 .4-.1Zm66.7 33.4c.1.2.3.2.5.3 3.6 1.8 7.3 3.6 10.9 5.4.9-1.9 1.8-3.8 2.5-5.8H83.8c-.2 0-.3 0-.5.1Z" fill="#FF1300" />
	</g>
	<defs>
		<clipPath id="a">
			<path fill="#fff" d="M0 0h100v100H0z" />
		</clipPath>
	</defs>
</svg>