<svg fill="currentColor" viewBox="0 0 24 24" xmlns="http://www.w3.org/2000/svg">
  <path d="M12 2.98C14.94 2.98 15.29 2.99 16.44 3.04C17.51 3.09 18.09 3.27 18.48 3.42C18.99 3.62 19.36 3.86 19.74 4.24C20.12 4.62 20.36 4.99 20.56 5.5C20.71 5.89 20.89 6.47 20.94 7.54C20.99 8.7 21 9.05 21 11.98C21 14.91 20.99 15.27 20.94 16.42C20.89 17.49 20.71 18.07 20.56 18.46C20.36 18.97 20.12 19.34 19.74 19.72C19.36 20.1 18.99 20.34 18.48 20.54C18.09 20.69 17.51 20.87 16.44 20.92C15.28 20.97 14.93 20.98 12 20.98C9.07 20.98 8.71 20.97 7.56 20.92C6.49 20.87 5.91 20.69 5.52 20.54C5.01 20.34 4.64 20.1 4.26 19.72C3.86 19.37 3.62 19 3.42 18.49C3.27 18.1 3.09 17.52 3.04 16.45C2.99 15.29 2.98 14.94 2.98 12C2.98 9.06 2.99 8.71 3.04 7.56C3.1 6.48 3.27 5.9 3.42 5.51C3.62 5 3.86 4.63 4.25 4.25C4.63 3.86 5 3.62 5.51 3.42C5.9 3.27 6.48 3.1 7.56 3.05C8.71 2.99 9.06 2.98 12 2.98ZM12 1C9.01 1 8.64 1.01 7.46 1.07C6.29 1.12 5.49 1.31 4.79 1.58C4.07 1.86 3.46 2.23 2.85 2.85C2.23 3.46 1.86 4.07 1.58 4.79C1.31 5.49 1.12 6.29 1.07 7.46C1.01 8.64 1 9.01 1 12C1 14.99 1.01 15.36 1.07 16.54C1.12 17.71 1.31 18.51 1.58 19.21C1.86 19.93 2.24 20.55 2.85 21.16C3.46 21.77 4.07 22.15 4.8 22.43C5.5 22.7 6.3 22.89 7.47 22.94C8.64 22.99 9.01 23 12 23C14.99 23 15.36 22.99 16.54 22.93C17.71 22.88 18.51 22.69 19.21 22.42C19.93 22.14 20.55 21.76 21.16 21.15C21.77 20.54 22.15 19.93 22.43 19.2C22.7 18.5 22.89 17.7 22.94 16.53C22.99 15.36 23 14.99 23 12C23 9.01 22.99 8.64 22.93 7.46C22.88 6.29 22.69 5.49 22.42 4.79C22.14 4.07 21.76 3.45 21.15 2.84C20.54 2.23 19.93 1.85 19.2 1.57C18.5 1.3 17.7 1.11 16.53 1.06C15.36 1.01 14.99 1 12 1Z" fill="currentColor" />
  <path d="M12.0001 6.35001C8.8801 6.35001 6.3501 8.88001 6.3501 12C6.3501 15.12 8.8801 17.65 12.0001 17.65C15.1201 17.65 17.6501 15.12 17.6501 12C17.6501 8.88001 15.1201 6.35001 12.0001 6.35001ZM12.0001 15.67C9.9701 15.67 8.3301 14.03 8.3301 12C8.3301 9.97001 9.9701 8.33001 12.0001 8.33001C14.0301 8.33001 15.6701 9.97001 15.6701 12C15.6701 14.03 14.0301 15.67 12.0001 15.67Z" fill="currentColor" />
  <path d="M17.8698 7.45C18.5988 7.45 19.1898 6.85901 19.1898 6.13C19.1898 5.40098 18.5988 4.81 17.8698 4.81C17.1408 4.81 16.5498 5.40098 16.5498 6.13C16.5498 6.85901 17.1408 7.45 17.8698 7.45Z" fill="currentColor" />
</svg>