<svg width="22" height="22" viewBox="0 0 22 22" fill="none" xmlns="http://www.w3.org/2000/svg">
  <path fill-rule="evenodd" clip-rule="evenodd" d="M0 1.58C0 0.71 0.76 0 1.66 0H20.41C21.3 0 22 0.71 22 1.58V20.42C22 21.29 21.31 22 20.41 22H1.66C0.76 22 0 21.29 0 20.41V1.58ZM11.69 8.25H8.71V18.8H11.92V13.69C11.92 11.98 12.55 10.89 14.06 10.89C15.15 10.89 15.58 11.9 15.58 13.69V18.8H18.79V12.98C18.79 9.83 18.04 8.12 14.87 8.12C13.22 8.12 12.12 8.89 11.69 9.75V8.25ZM6.42 18.79H3.21V8.25H6.42V18.79ZM4.81 6.87C5.95 6.87 6.87 5.95 6.87 4.81C6.87 3.67 5.95 2.75 4.81 2.75C3.67 2.75 2.75 3.67 2.75 4.81C2.75 5.95 3.67 6.87 4.81 6.87Z" fill="black" />
</svg>
  