<svg viewBox="0 0 24 24" fill="none" xmlns="http://www.w3.org/2000/svg">
  <path d="M22 20.59L16.17 14.76C17.31 13.31 18 11.49 18 9.5C17.9974 7.24647 17.101 5.086 15.5075 3.49252C13.914 1.89903 11.7535 1.00265 9.5 1C7.24647 1.00265 5.086 1.89903 3.49252 3.49252C1.89903 5.086 1.00265 7.24647 1 9.5C1.00265 11.7535 1.89903 13.914 3.49252 15.5075C5.086 17.101 7.24647 17.9974 9.5 18C11.49 18 13.31 17.31 14.76 16.17L20.59 22C20.98 22.39 21.61 22.39 22 22C22.39 21.61 22.39 20.98 22 20.59ZM9.5 16C5.92 16 3 13.08 3 9.5C3 5.92 5.92 3 9.5 3C13.08 3 16 5.92 16 9.5C16 13.08 13.08 16 9.5 16Z" fill="currentColor" />
</svg>