<svg width="24" height="24" viewBox="0 0 24 24" fill="none" xmlns="http://www.w3.org/2000/svg">
  <path d="M12 3C15.58 3 18.5 5.92 18.5 9.5C18.5 10.16 18.4 10.82 18.2 11.45C18.1 11.76 17.98 12.07 17.81 12.4L17.36 13.18L13.27 20.26C13.01 20.72 12.52 21 12 21C11.48 21 10.99 20.72 10.73 20.27L6.64002 13.18L6.19002 12.4C6.02002 12.07 5.89002 11.76 5.80002 11.45C5.53002 10.59 5.44002 9.68 5.54002 8.77C5.89002 5.62 8.65002 3.09 11.83 3H12ZM12 1C11.92 1 11.85 1 11.77 1C7.59002 1.11 4.01002 4.39 3.55002 8.55C3.42002 9.78 3.54002 10.96 3.89002 12.05C4.03002 12.5 4.22002 12.94 4.43002 13.36L4.91002 14.19L9.00002 21.27C9.62002 22.34 10.76 23 12 23C13.24 23 14.38 22.34 15 21.27L19.09 14.19L19.57 13.36C19.78 12.94 19.97 12.51 20.11 12.05C20.36 11.25 20.5 10.39 20.5 9.5C20.5 4.81 16.69 1 12 1Z" fill="#595D6A" />
  <path d="M12 7C13.1 7 14 7.9 14 9C14 10.1 13.1 11 12 11C10.9 11 10 10.1 10 9C10 7.9 10.9 7 12 7ZM12 5C9.79 5 8 6.79 8 9C8 11.21 9.79 13 12 13C14.21 13 16 11.21 16 9C16 6.79 14.21 5 12 5Z" fill="#595D6A" />
</svg>
  