<svg viewBox="0 0 24 24" fill="none" xmlns="http://www.w3.org/2000/svg">
  <path d="M14 1H10C8.9 1 8 1.9 8 3H16C16 1.9 15.1 1 14 1Z" fill="currentColor" />
  <path d="M21 4H3C2.45 4 2 4.45 2 5C2 5.55 2.45 6 3 6H3.54V18C3.54 20.76 5.78 23 8.54 23H15.54C18.3 23 20.54 20.76 20.54 18V6H21C21.55 6 22 5.55 22 5C22 4.45 21.55 4 21 4ZM18.54 18C18.54 19.65 17.19 21 15.54 21H8.54C6.89 21 5.54 19.65 5.54 18V6H18.54V18Z" fill="currentColor" />
  <path d="M9 19C9.55 19 10 18.55 10 18V9C10 8.45 9.55 8 9 8C8.45 8 8 8.45 8 9V18C8 18.55 8.45 19 9 19Z" fill="currentColor" />
  <path d="M15 19C15.55 19 16 18.55 16 18V9C16 8.45 15.55 8 15 8C14.45 8 14 8.45 14 9V18C14 18.55 14.45 19 15 19Z" fill="currentColor" />
</svg>