<svg fill="currentColor" viewBox="0 0 24 24" xmlns="http://www.w3.org/2000/svg">
  <g clipPath="url(#clip0_1345_1284)">
    <path d="M21.54 7.1C21.55 7.31 21.55 7.52 21.55 7.74C21.55 14.25 16.6 21.75 7.53999 21.75C4.85999 21.75 2.23999 20.99 -0.0100098 19.54C0.37999 19.59 0.76999 19.61 1.15999 19.61C3.37999 19.61 5.52999 18.87 7.27999 17.5C5.16999 17.46 3.32999 16.09 2.67999 14.08C3.41999 14.22 4.17999 14.19 4.89999 14C2.59999 13.54 0.94999 11.52 0.94999 9.17C0.94999 9.15 0.94999 9.13 0.94999 9.11C1.63999 9.49 2.40999 9.7 3.19999 9.72C1.02999 8.28 0.35999 5.4 1.66999 3.15C4.16999 6.23 7.85999 8.1 11.82 8.29C11.42 6.58 11.97 4.79 13.24 3.59C15.22 1.73 18.34 1.82 20.21 3.8C21.31 3.58 22.37 3.18 23.34 2.6C22.97 3.74 22.2 4.71 21.18 5.32C22.15 5.21 23.1 4.95 24 4.55C23.34 5.54 22.51 6.41 21.54 7.1Z" fill="currentColor" />
  </g>
  <defs>
    <clipPath id="clip0_1345_1284">
      <rect width="24" height="24" fill="white" />
    </clipPath>
  </defs>
</svg>