<svg width="24" height="24" viewBox="0 0 24 24" fill="none" xmlns="http://www.w3.org/2000/svg">
  <path fill-rule="evenodd" clip-rule="evenodd" d="M21.38 4.10001C22.41 4.37001 23.22 5.19001 23.5 6.22001C24 8.09001 24 12 24 12C24 12 24 15.91 23.5 17.78C23.23 18.81 22.41 19.62 21.38 19.9C19.51 20.4 12 20.4 12 20.4C12 20.4 4.49 20.4 2.62 19.9C1.59 19.63 0.78 18.81 0.5 17.78C0 15.91 0 12 0 12C0 12 0 8.09001 0.5 6.22001C0.78 5.19001 1.59 4.38001 2.62 4.10001C4.49 3.60001 12 3.60001 12 3.60001C12 3.60001 19.51 3.60001 21.38 4.10001ZM15.84 12L9.6 15.6V8.40001L15.84 12Z" fill="black" />
</svg>
  