<svg xmlns="http://www.w3.org/2000/svg" fill="none" viewBox="0 0 2500 752" height="752" width="2500">
<path fill="#2563EB" d="M561.243 184.474V417.179C561.243 420.951 559.745 424.568 557.077 427.235C554.41 429.903 550.792 431.401 547.02 431.401H473.562C469.79 431.399 466.174 429.9 463.507 427.234C460.84 424.567 459.341 420.95 459.339 417.179V38.6732C459.339 34.9011 460.838 31.2835 463.505 28.6163C466.172 25.949 469.79 24.4506 473.562 24.4506H541.539C545.312 24.4506 548.929 25.949 551.596 28.6163C554.264 31.2835 555.762 34.9011 555.762 38.6732V91.9767C555.762 91.9767 580.062 15.9408 652.179 15.9408C652.179 15.9408 723.511 7.31819 752.515 86.4896C752.515 86.4896 776.815 15.9408 850.499 15.9408C850.499 15.9408 960.079 9.42525 960.079 122.811L960.913 185.258V417.962C960.913 421.734 959.414 425.352 956.747 428.019C954.08 430.687 950.462 432.185 946.69 432.185H873.225C869.454 432.183 865.837 430.684 863.17 428.017C860.503 425.351 859.004 421.734 859.003 417.962L858.332 164.093C860.42 106.607 813.914 110.79 813.914 110.79C755.387 111.837 761.018 185.258 761.018 185.258V417.962C761.018 421.734 759.52 425.352 756.853 428.019C754.185 430.687 750.568 432.185 746.796 432.185H673.337C669.566 432.183 665.949 430.684 663.282 428.017C660.615 425.351 659.116 421.734 659.115 417.962V169.838C659.115 169.838 663.41 110.263 611.148 110.263C611.154 110.263 559.418 103.471 561.243 184.474ZM2454.8 183.778V416.476C2454.8 420.248 2453.3 423.864 2450.64 426.531C2447.97 429.198 2444.35 430.697 2440.58 430.699L2364.18 432.179C2360.41 432.177 2356.79 430.678 2354.13 428.011C2351.46 425.344 2349.96 421.728 2349.96 417.956V169.838C2349.96 169.838 2354.25 110.263 2302 110.263C2302 110.263 2252.09 107.805 2252.09 201.211V417.172C2252.09 420.944 2250.59 424.56 2247.92 427.227C2245.25 429.894 2241.64 431.393 2237.86 431.395H2164.4C2160.63 431.393 2157.01 429.894 2154.35 427.227C2151.68 424.56 2150.18 420.944 2150.18 417.172V38.6732C2150.18 34.9016 2151.68 31.285 2154.35 28.6181C2157.01 25.9512 2160.63 24.4522 2164.4 24.4506H2232.38C2236.15 24.4506 2239.77 25.949 2242.43 28.6163C2245.1 31.2835 2246.6 34.9011 2246.6 38.6732V91.9767C2246.6 91.9767 2270.9 15.9408 2343.02 15.9408C2343.02 15.9408 2420.27 4.22032 2446.29 85.0159C2446.29 85.0097 2454.8 101.678 2454.8 183.778ZM1924.4 14.3731C1830.46 14.3731 1754.3 93.5445 1754.3 226.803C1754.3 344.128 1813.09 439.234 1924.4 439.234C2029.44 439.234 2094.5 344.128 2094.5 226.803C2094.5 95.8961 2018.35 14.3731 1924.4 14.3731ZM1983.7 231.507C1983.7 281.675 1977.42 308.326 1977.42 308.326C1968.5 361.36 1930 361.436 1924.33 361.153C1918.2 361.398 1879.38 360.846 1871.34 308.326C1871.34 308.326 1865.07 281.675 1865.07 231.507V223.147C1865.07 172.979 1871.34 146.328 1871.34 146.328C1879.38 93.8079 1918.21 93.256 1924.33 93.4943C1930 93.2121 1968.5 93.2811 1977.42 146.328C1977.42 146.328 1983.7 172.979 1983.7 223.147V231.507ZM1711.67 91.45V37.1431C1711.66 33.3715 1710.16 29.7549 1707.5 27.088C1704.83 24.4211 1701.21 22.9221 1697.44 22.9204H1454.63C1450.86 22.9204 1447.24 24.4189 1444.57 27.0862C1441.9 29.7534 1440.41 33.371 1440.41 37.1431V91.0298C1440.41 94.8014 1441.91 98.418 1444.57 101.085C1447.24 103.752 1450.86 105.251 1454.63 105.252H1581.28L1431.37 322.731C1431.37 322.731 1425.46 331.548 1425.66 341.287V407.44C1425.66 407.44 1424.68 430.122 1450.4 416.959C1450.4 416.959 1496.09 389.354 1572.71 389.354C1572.71 389.354 1648.37 388.413 1698.81 419.336C1698.81 419.336 1719.75 428.855 1719.75 407.922V350.342C1719.75 350.342 1721.65 335.104 1701.66 325.59C1701.66 325.59 1643.61 293.709 1567.47 298.939L1711.67 91.45ZM402.643 363.712L379.647 328.707C372.329 315.638 372.856 301.002 372.856 301.002V139.53C375.991 -7.41883e-05 221.304 12.0214 221.304 12.0214C83.7938 12.0214 63.482 119.036 63.482 119.036C57.7503 140.552 74.4187 141.072 74.4187 141.072L141.612 147.889C141.612 147.889 153.07 150.51 157.24 136.871C157.24 136.871 166.088 90.1832 215.573 90.1832C269.416 90.1832 268.857 136.394 268.857 136.394V175.08C161.372 178.673 111.562 208.511 111.562 208.511C45.1958 246.137 49.3723 320.868 49.3723 320.868C49.3723 442.626 165.386 437.396 165.386 437.396C239.591 437.396 283.488 383.052 283.488 383.052C296.55 406.054 320.593 427.99 320.593 427.99C332.621 441.033 345.157 430.084 345.157 430.084L399.508 383.578C411.523 374.686 402.643 363.712 402.643 363.712ZM201.601 362.207C166.696 362.207 153.722 327.522 159.516 293.433C165.317 259.344 195.443 232.554 268.864 233.338V254.063C271.466 344.604 230.654 362.207 201.601 362.207ZM1378.83 363.712L1355.84 328.707C1348.52 315.638 1349.04 301.002 1349.04 301.002V139.53C1352.17 -7.41883e-05 1197.49 12.0214 1197.49 12.0214C1059.98 12.0214 1039.66 119.036 1039.66 119.036C1033.93 140.552 1050.6 141.072 1050.6 141.072L1117.79 147.889C1117.79 147.889 1129.25 150.51 1133.42 136.871C1133.42 136.871 1142.27 90.1832 1191.75 90.1832C1245.6 90.1832 1245.04 136.394 1245.04 136.394V175.08C1137.56 178.673 1087.74 208.511 1087.74 208.511C1021.38 246.137 1025.55 320.868 1025.55 320.868C1025.55 442.626 1141.57 437.396 1141.57 437.396C1215.77 437.396 1259.67 383.052 1259.67 383.052C1272.74 406.054 1296.77 427.99 1296.77 427.99C1308.8 441.033 1321.34 430.084 1321.34 430.084L1375.68 383.578C1387.7 374.686 1378.83 363.712 1378.83 363.712ZM1177.78 362.207C1142.88 362.207 1129.9 327.522 1135.7 293.433C1141.5 259.344 1171.62 232.554 1245.04 233.338V254.063C1247.65 344.604 1206.84 362.207 1177.78 362.207Z"></path>
<path fill="#2563EB" d="M1563.79 669.348C1563.79 669.348 1557.65 680.04 1565.2 682.429C1565.2 682.429 1573.73 685.759 1584.36 675.889C1584.36 675.889 1661.93 608.131 1663.8 484.767C1663.8 484.767 1664.37 469.36 1658.19 465.145C1658.19 465.145 1633.89 443.648 1546.51 450.189C1546.51 450.189 1470.34 455.331 1428.75 492.249C1428.75 492.249 1425.02 495.516 1425.02 499.717C1425.02 499.717 1424.12 508.792 1446.98 504.86C1446.98 504.86 1523.14 494.105 1568.47 499.717C1568.47 499.717 1591.84 502.521 1598.38 510.472C1598.38 510.472 1609.13 519.352 1603.52 548.782C1603.52 548.794 1588.09 623.557 1563.79 669.348Z"></path>
<path fill="#2563EB" d="M1548.44 550.995C1548.44 550.995 1559.81 565.732 1541.46 578.444C1541.46 578.444 1345.38 735.281 1016.15 735.281C1016.15 735.281 677.257 752 394.277 494.889C394.277 494.889 384.357 486.178 390.515 478.083C390.515 478.083 396.021 470.633 410.275 478.735C410.275 478.735 676.473 644.609 1026.08 644.609C1026.08 644.609 1269.08 654.016 1518.35 547.408C1518.35 547.408 1538.22 537.118 1548.44 550.995Z"></path>
</svg>
