<svg xmlns="http://www.w3.org/2000/svg" fill="none" viewBox="0 0 2500 816" height="816" width="2500">
<g clip-path="url(#clip0_34_333)">
<path fill="#2563EB" d="M307.886 0.0722656H330.117C407.299 1.75012 483.222 32.7904 537.752 87.7401C517.617 108.294 497.064 128.009 477.349 148.562C446.728 120.878 409.815 99.485 369.547 91.9347C309.983 79.3508 245.805 90.6763 195.889 124.653C141.359 160.307 104.446 220.71 96.4765 285.307C87.6678 349.066 105.705 416.18 147.232 465.676C187.081 513.915 247.903 544.116 310.822 546.213C369.547 549.569 430.789 531.532 473.574 490.425C507.131 461.482 522.651 417.438 527.685 374.653C458.054 374.653 388.423 375.072 318.792 374.653V288.243H611.997C627.097 380.945 605.285 485.391 534.815 551.666C487.836 598.646 422.819 626.331 356.544 631.784C292.366 638.076 226.091 625.911 169.044 594.871C100.671 558.378 46.1409 496.717 19.2953 424.149C-5.87248 357.455 -6.29195 281.951 17.198 214.837C38.5906 153.596 79.698 99.485 132.55 61.7333C183.305 24.4011 244.966 3.84743 307.886 0.0722656Z"></path>
<path fill="#2563EB" d="M1989.93 21.8843H2079.7V620.878C2049.92 620.878 2019.71 621.297 1989.93 620.458C1990.35 421.213 1989.93 221.549 1989.93 21.8843Z"></path>
<path fill="#2563EB" d="M811.661 229.518C867.03 219.032 927.013 230.777 972.735 263.914C1014.26 293.277 1043.2 339.418 1052.01 389.753C1063.34 448.059 1049.08 511.817 1011.33 557.958C970.637 609.552 903.943 637.236 838.926 633.042C779.362 629.686 721.476 599.904 686.241 551.246C646.392 497.555 636.745 423.73 658.557 360.81C680.369 293.277 742.03 241.683 811.661 229.518ZM824.245 309.216C801.594 315.089 780.621 328.092 765.52 346.549C724.832 395.206 727.349 474.485 772.231 519.787C797.819 545.793 836.409 557.958 872.064 550.827C905.201 544.955 934.144 522.723 950.084 493.361C977.768 443.444 969.799 374.653 927.433 335.642C900.168 310.475 860.319 299.988 824.245 309.216Z"></path>
<path fill="#2563EB" d="M1256.29 229.518C1319.63 217.354 1388.84 234.971 1436.24 279.435C1513.42 348.646 1521.81 478.26 1455.96 557.958C1416.11 608.294 1351.51 635.978 1287.75 633.042C1226.93 631.364 1166.95 601.163 1130.87 551.247C1090.18 496.297 1081.38 420.794 1104.45 356.616C1127.52 291.18 1187.92 241.263 1256.29 229.518ZM1268.88 309.216C1246.22 315.089 1225.25 328.092 1210.15 346.129C1169.88 393.948 1171.56 471.968 1214.77 517.69C1240.35 544.955 1280.2 558.378 1317.11 550.827C1349.83 544.535 1379.19 522.723 1395.13 493.361C1422.4 443.025 1414.43 374.233 1371.64 335.223C1344.38 310.055 1304.53 299.988 1268.88 309.216Z"></path>
<path fill="#2563EB" d="M1633.39 253.847C1681.63 223.646 1745.81 215.257 1797.82 241.263C1814.18 248.394 1827.6 260.559 1840.6 272.723C1841.02 261.397 1840.6 249.653 1841.02 237.908C1869.13 238.327 1897.23 237.908 1925.76 238.327V608.293C1925.34 664.082 1911.07 723.226 1870.81 763.914C1826.76 808.797 1759.23 822.639 1698.41 813.411C1633.39 803.763 1576.76 756.364 1551.59 696.381C1576.76 684.216 1603.19 674.569 1629.19 663.243C1643.88 697.639 1673.66 727.002 1710.99 733.713C1748.32 740.424 1791.53 731.196 1815.86 700.156C1841.86 668.277 1841.86 624.653 1840.6 585.643C1821.31 604.518 1799.08 621.297 1772.23 627.589C1713.93 643.948 1649.75 623.814 1604.87 584.384C1559.56 544.955 1532.72 484.132 1535.23 423.73C1536.49 355.357 1575.08 289.502 1633.39 253.847ZM1720.22 307.538C1694.63 311.733 1670.72 325.995 1654.36 345.71C1614.93 392.689 1614.93 467.773 1654.78 513.914C1677.43 541.179 1713.93 556.28 1749.16 552.505C1782.3 549.149 1812.92 528.176 1829.28 499.233C1856.96 450.156 1852.35 383.461 1815.02 340.676C1791.95 314.25 1755.03 301.246 1720.22 307.538Z"></path>
<path fill="#2563EB" d="M2187.5 275.24C2237.84 228.26 2315.44 212.32 2380.03 237.069C2441.28 260.139 2480.29 318.445 2500 378.428C2408.98 416.179 2318.37 453.512 2227.35 491.263C2239.93 515.173 2259.23 536.985 2285.23 545.794C2321.73 558.797 2365.35 554.183 2395.97 529.854C2408.14 520.626 2417.79 508.461 2427.01 496.716C2450.08 512.237 2473.15 527.337 2496.22 542.857C2463.51 591.934 2408.56 626.331 2349.41 631.784C2283.98 639.753 2214.35 614.586 2171.98 563.411C2102.35 482.874 2109.06 347.807 2187.5 275.24ZM2232.38 352.841C2218.12 373.394 2212.25 398.562 2212.67 423.31C2273.49 398.143 2334.31 372.975 2395.13 347.388C2385.07 323.898 2360.74 309.636 2335.99 305.861C2296.14 298.73 2254.61 320.122 2232.38 352.841Z"></path>
</g>
<defs>
<clipPath id="clip0_34_333">
<rect fill="white" height="816" width="2500"></rect>
</clipPath>
</defs>
</svg>
